<?xml version="1.0" encoding="UTF-8"?>
<svg version="1.1" xmlns="http://www.w3.org/2000/svg" width="512" height="512">
<path d="M0 0 C1.68269968 -0.00417513 3.36539654 -0.00965363 5.04808819 -0.01631981 C9.66260564 -0.03076968 14.27694441 -0.02653111 18.89147162 -0.019153 C23.87181763 -0.0144225 28.85212491 -0.02693016 33.8324585 -0.03717041 C43.58578733 -0.05436616 53.33905177 -0.05519678 63.09239183 -0.04995751 C71.02023081 -0.04591594 78.94805076 -0.04735921 86.87588882 -0.05270576 C88.56845318 -0.0538284 88.56845318 -0.0538284 90.29521076 -0.05497371 C92.58751718 -0.05650519 94.87982359 -0.05804354 97.17213 -0.05958868 C118.66890981 -0.07331659 140.16565323 -0.06787403 161.66243221 -0.05640347 C181.32637764 -0.04647127 200.99022897 -0.05941103 220.65415989 -0.08333766 C240.84779284 -0.10772358 261.04138196 -0.11733774 281.23502934 -0.11068493 C292.5711415 -0.10719153 303.90718129 -0.10943279 315.24328232 -0.12693596 C324.89368478 -0.14165159 334.54396391 -0.14230171 344.19436394 -0.12486505 C349.11713339 -0.11634738 354.03968248 -0.11422431 358.96244049 -0.1295166 C363.47165279 -0.14335071 367.98045565 -0.13861692 372.48964418 -0.11927737 C374.11810398 -0.11551313 375.74659647 -0.11845155 377.37502716 -0.12888902 C388.08796711 -0.19265401 397.2704608 0.26198981 405.55349731 7.70018005 C411.56191548 13.7971744 412.05512905 20.56031797 412.00367737 28.66659546 C412.01175567 30.19843227 412.01175567 30.19843227 412.01999718 31.76121527 C412.03428006 35.175808 412.02717204 38.59001324 412.02005005 42.00462341 C412.02575341 44.45570182 412.03271754 46.90677757 412.04084778 49.35784912 C412.05693405 55.3200098 412.05887913 61.28201881 412.05363487 67.24418633 C412.04958908 72.09140651 412.05104158 76.93859559 412.05638313 81.78581429 C412.05713155 82.47639638 412.05787998 83.16697848 412.05865108 83.87848731 C412.0601826 85.28152073 412.06172094 86.68455414 412.06326605 88.08758754 C412.07698529 101.23677509 412.07155739 114.38590309 412.06008083 127.53508926 C412.05014843 139.55703814 412.06309021 151.57883311 412.08701503 163.60075825 C412.11141405 175.95433007 412.12101197 188.30783022 412.1143623 200.66142565 C412.11087193 207.59326788 412.11309005 214.52499174 412.13061333 221.45681572 C412.1468865 227.97479338 412.14214119 234.49252499 412.12330818 241.0105114 C412.11961874 243.40180403 412.12274104 245.79311839 412.13319397 248.18439102 C412.14638052 251.45052733 412.13487595 254.71568667 412.11720276 257.98178101 C412.12680777 258.92644051 412.13641277 259.87110001 412.14630884 260.84438556 C412.06924212 267.77390617 410.44577278 273.03020753 405.94021606 278.3759613 C405.40009888 278.81295349 404.85998169 279.24994568 404.30349731 279.70018005 C403.7711145 280.15006287 403.23873169 280.59994568 402.69021606 281.0634613 C396.39490874 285.08249931 391.215728 285.84600746 383.88552856 285.8212738 C382.972686 285.82651566 382.05984344 285.83175751 381.11933899 285.8371582 C379.20067356 285.84355133 377.28196879 285.84227672 375.36331177 285.83372498 C372.42665436 285.82517469 369.49191806 285.85407814 366.55545044 285.88572693 C364.6863104 285.88733814 362.81716691 285.88676294 360.94802856 285.8837738 C360.07193436 285.89500778 359.19584015 285.90624176 358.29319763 285.91781616 C352.24569596 285.84846041 352.24569596 285.84846041 349.09133911 283.54026794 C347.15918789 280.72117522 346.68572907 278.80453613 346.61599731 275.38768005 C347.79136114 272.66578487 348.77315436 270.98223967 351.20559692 269.26634216 C354.75319746 267.97313702 358.26608924 268.08932639 361.99490356 268.0790863 C363.65441248 268.05393925 365.31391761 268.02854105 366.97341919 268.00291443 C369.58270389 267.97411112 372.19192313 267.95008382 374.80130005 267.93138123 C377.32450133 267.90977075 379.84695854 267.87035167 382.36990356 267.8290863 C383.15120132 267.82897049 383.93249908 267.82885468 384.73747253 267.82873535 C388.87493936 267.77747387 388.87493936 267.77747387 392.56887817 266.11009216 C394.46954724 262.98367103 394.74109396 259.84379127 394.74742508 256.24216652 C394.75126622 255.41930456 394.75510737 254.5964426 394.75906491 253.74864542 C394.75776519 252.40070228 394.75776519 252.40070228 394.75643921 251.02552795 C394.75941033 250.06670884 394.76238145 249.10788974 394.76544261 248.1200155 C394.77413222 244.89884412 394.77563807 241.67770989 394.77713013 238.45652771 C394.78175805 236.15043051 394.78678267 233.84433407 394.79217529 231.53823853 C394.80530226 225.26761164 394.81174463 218.99699546 394.81618595 212.72635698 C394.8191157 208.81058005 394.82322029 204.89480606 394.82769012 200.97903061 C394.83979794 190.13583547 394.85018078 179.29264357 394.85356522 168.44944191 C394.85378478 167.75570312 394.85400435 167.06196433 394.85423057 166.34720316 C394.85444885 165.65181554 394.85466712 164.95642792 394.85489202 164.23996794 C394.85533548 162.83087198 394.85578204 161.42177602 394.85623169 160.01268005 C394.85645312 159.31372145 394.85667455 158.61476285 394.85690269 157.89462368 C394.86085162 146.56631405 394.8783096 135.23806871 394.90159121 123.90978391 C394.92530502 112.27727698 394.93750906 100.6448055 394.93893313 89.01227415 C394.93998249 82.48175879 394.94591821 75.95133415 394.96375275 69.42084122 C394.9801979 63.27967638 394.98240618 57.13867081 394.97361374 50.99749184 C394.97284151 48.74242413 394.97721048 46.48734799 394.98707199 44.23230171 C394.99973726 41.15594328 394.99394399 38.08015357 394.98348999 35.00379944 C394.99154639 34.10963212 394.9996028 33.21546479 395.00790334 32.29420149 C394.96782096 27.25746431 394.44794232 23.73891197 391.61599731 19.38768005 C388.74293741 17.9511501 386.28440951 18.25815235 383.07165718 18.25345898 C382.38844491 18.25110675 381.70523264 18.24875452 381.00131696 18.24633101 C378.68919646 18.23962143 376.37713189 18.24009981 374.06500244 18.24050903 C372.39970688 18.23721164 370.73441212 18.23348633 369.06911838 18.22936755 C364.47512251 18.21932551 359.8811397 18.21562724 355.28713441 18.21297824 C350.33952924 18.20908178 345.39193448 18.19950309 340.44433594 18.19076538 C328.48806051 18.17098368 316.5317842 18.1609332 304.57549649 18.15203759 C298.95048582 18.14765801 293.32547608 18.1422904 287.70046616 18.13704872 C269.0115815 18.12003574 250.32269744 18.10553992 231.63380623 18.09829998 C226.78167851 18.09638997 221.9295508 18.09446965 217.0774231 18.09251404 C215.87139497 18.0920303 214.66536685 18.09154656 213.42279242 18.09104816 C193.87081658 18.08274171 174.3189018 18.05739474 154.76695265 18.02493336 C134.71140869 17.9919062 114.65589582 17.97385521 94.60032451 17.97065574 C83.33249112 17.96848675 72.06474681 17.95968129 60.79693985 17.93419456 C51.20405714 17.91254693 41.61128514 17.90440781 32.01838078 17.91416135 C27.12069034 17.91872317 22.2232286 17.91671113 17.32556915 17.8973999 C12.84605127 17.87988926 8.36693095 17.88066657 3.88740955 17.89629719 C2.26290884 17.89869179 0.63838147 17.89425485 -0.98607825 17.88246854 C-3.18720234 17.86748159 -5.38689348 17.87692807 -7.58798027 17.89269543 C-8.81263335 17.89171862 -10.03728643 17.89074181 -11.29905021 17.8897354 C-14.99611409 18.48648145 -16.14579506 19.4404409 -18.38400269 22.38768005 C-19.28575827 25.09294679 -19.5098842 26.63811777 -19.51263714 29.41293907 C-19.51586158 30.23442668 -19.51908603 31.05591429 -19.52240819 31.90229547 C-19.52085959 32.8045192 -19.51931098 33.70674292 -19.51771545 34.63630676 C-19.51998101 35.59497701 -19.52224657 36.55364726 -19.52458078 37.54136813 C-19.53093335 40.7679829 -19.53009061 43.9945558 -19.52926636 47.22117615 C-19.53225706 49.52874811 -19.53565938 51.83631958 -19.53944397 54.14389038 C-19.54829715 60.4227765 -19.55062264 66.701649 -19.55125976 72.98054075 C-19.55220785 78.21680808 -19.55588499 83.45307222 -19.55943185 88.68933833 C-19.56711557 100.33429033 -19.57010002 111.97923568 -19.5694265 123.62419002 C-19.56936657 124.67259122 -19.56936657 124.67259122 -19.56930542 125.74217224 C-19.56926454 126.44195866 -19.56922366 127.14174507 -19.56918154 127.86273713 C-19.56877506 139.20470352 -19.57834476 150.5466367 -19.59244379 161.88859348 C-19.60680252 173.53123325 -19.61353104 185.17385531 -19.61285001 196.81650412 C-19.61259465 203.35424574 -19.61546668 209.89194981 -19.62602806 216.42968369 C-19.63568777 222.57737367 -19.63580284 228.72499004 -19.62851143 234.87268257 C-19.62746294 237.13139134 -19.62984407 239.39010465 -19.63587189 241.64880562 C-19.6435574 244.72765316 -19.63896977 247.80624427 -19.63124084 250.88508606 C-19.63638441 251.78284834 -19.64152797 252.68061063 -19.6468274 253.60557783 C-19.61641375 259.07289126 -19.44118039 263.33050235 -15.38400269 267.38768005 C-13.15622355 267.69780474 -13.15622355 267.69780474 -10.55465698 267.65892029 C-9.04750374 267.67420021 -9.04750374 267.67420021 -7.50990295 267.68978882 C-5.8755706 267.69299889 -5.8755706 267.69299889 -4.20822144 267.6962738 C-1.91329706 267.72143729 0.38162476 267.74683526 2.67654419 267.77244568 C6.30406005 267.80118675 9.93153132 267.82519576 13.55911255 267.84397888 C17.05357329 267.86562746 20.54750169 267.90507338 24.04177856 267.9462738 C25.66700188 267.94644753 25.66700188 267.94644753 27.32505798 267.94662476 C36.71926908 268.0701745 36.71926908 268.0701745 40.61599731 271.38768005 C42.5446357 273.92997611 42.62502022 275.17113023 42.49099731 278.38768005 C41.46696282 281.89865547 40.43982419 283.10663572 37.61599731 285.38768005 C35.07629395 285.90234375 35.07629395 285.90234375 32.17996216 285.92112732 C31.09137909 285.93696365 30.00279602 285.95279999 28.88122559 285.96911621 C27.70830963 285.96415634 26.53539368 285.95919647 25.32693481 285.9540863 C24.11333282 285.96028488 22.89973083 285.96648346 21.64935303 285.97286987 C19.07883506 285.97997622 16.50827115 285.97677997 13.93777466 285.96409607 C10.02625294 285.95030436 6.11715797 285.98420586 2.20584106 286.02244568 C-0.2954616 286.02339761 -2.79676723 286.02153407 -5.29806519 286.0165863 C-6.45883575 286.02984451 -7.61960632 286.04310272 -8.81555176 286.0567627 C-17.13007742 285.96267037 -24.09761531 284.39335134 -30.32507324 278.57373047 C-36.1096029 272.3175085 -36.67823106 266.59396474 -36.65142822 258.34927368 C-36.65595934 257.32975799 -36.66049045 256.31024231 -36.66515887 255.2598322 C-36.67783241 251.83910472 -36.67618057 248.41853586 -36.67453003 244.99778748 C-36.68051343 242.54700515 -36.68731854 240.09622472 -36.69488525 237.64544678 C-36.71073403 231.67636017 -36.71699449 225.70733607 -36.71811001 219.73823424 C-36.71906085 214.88525055 -36.72317295 210.03227988 -36.72951126 205.17930031 C-36.74712202 191.41497765 -36.75635043 177.65068615 -36.75485031 163.88635214 C-36.7547704 163.14453205 -36.75469049 162.40271196 -36.75460815 161.63841248 C-36.75452639 160.89568477 -36.75444463 160.15295707 -36.75436039 159.38772247 C-36.75354762 147.35271881 -36.77268357 135.31784033 -36.80088489 123.28287288 C-36.8296248 110.92033137 -36.84342456 98.55785089 -36.84169734 86.19527513 C-36.8410338 79.25668794 -36.84651005 72.31823198 -36.86805344 65.37967491 C-36.88818672 58.85352865 -36.8875802 52.32761205 -36.87302017 45.80143547 C-36.87092732 43.40691473 -36.87566118 41.01237677 -36.88774109 38.61788559 C-36.90317146 35.34727645 -36.89389902 32.07762578 -36.878479 28.80703735 C-36.88876613 27.86101361 -36.89905326 26.91498987 -36.90965211 25.94029874 C-36.83587719 18.8520912 -35.11828273 13.63320153 -30.52462769 8.1806488 C-29.90072144 7.65084412 -29.27681519 7.12103943 -28.63400269 6.57518005 C-28.02040894 6.03248474 -27.40681519 5.48978943 -26.77462769 4.9306488 C-18.33372323 -0.51732058 -9.68406913 -0.03901014 0 0 Z " fill="#000000" transform="translate(68.38400268554688,48.61231994628906)"/>
<path d="M0 0 C1.3062963 -0.00644889 2.61259259 -0.01289778 3.95847362 -0.0195421 C5.41680498 -0.01659953 6.87513596 -0.01346407 8.33346653 -0.01015663 C9.87588253 -0.01389089 11.41829664 -0.01849151 12.96070772 -0.02388728 C17.2104174 -0.03616029 21.46004862 -0.03585178 25.70977199 -0.03349853 C30.28858309 -0.03309145 34.86736865 -0.04411901 39.44616795 -0.05361366 C48.42077133 -0.07024778 57.39534845 -0.07572428 66.36996596 -0.07683842 C73.66200824 -0.07778768 80.95404182 -0.08189182 88.24608135 -0.08823967 C108.90433429 -0.10585802 129.56256641 -0.11507752 150.22082692 -0.11357872 C151.89241078 -0.11345885 151.89241078 -0.11345885 153.59776402 -0.11333656 C155.27138028 -0.11321392 155.27138028 -0.11321392 156.97880698 -0.1130888 C175.06929077 -0.11227555 193.15969137 -0.13142156 211.25015109 -0.1596133 C229.809595 -0.18830852 248.36899828 -0.20215547 266.92846495 -0.20042574 C277.35455687 -0.19976072 287.78056157 -0.20530228 298.20663357 -0.22678185 C307.08218419 -0.2449494 315.95760804 -0.24937749 324.83316915 -0.235763 C329.36429553 -0.22921111 333.89517839 -0.22919574 338.42628193 -0.2464695 C342.57085194 -0.26210767 346.71498349 -0.25943235 350.8595422 -0.24190123 C352.36220745 -0.23881079 353.86490468 -0.24253997 355.36753225 -0.25362138 C357.40378626 -0.26764851 359.44017311 -0.25481766 361.47642517 -0.24050903 C362.6094033 -0.24094377 363.74238143 -0.24137851 364.90969223 -0.24182642 C368.44957408 0.36919712 369.59423252 1.4855626 371.80113316 4.25726891 C373.38608768 7.42717794 372.94536348 10.84155738 372.94157505 14.32265282 C372.94603173 15.58786736 372.94603173 15.58786736 372.95057845 16.87864178 C372.95929026 19.72141345 372.96077579 22.56414313 372.96226597 25.40692711 C372.96689239 27.43849338 372.97191681 29.47005878 372.97731113 31.50162315 C372.99045417 37.03265545 372.99688381 42.5636756 373.00132179 48.09472108 C373.00424948 51.54781779 373.0083537 55.00091116 373.01282597 58.4540062 C373.02650597 69.25072887 373.03617014 80.04744394 373.04002786 90.84417468 C373.04450986 103.32075426 373.06206232 115.79722435 373.09102845 128.27377063 C373.11262313 137.90863118 373.12273096 147.54346088 373.12406898 157.17834538 C373.1251186 162.93700405 373.13105985 168.69555986 373.14888859 174.45419312 C373.16533096 179.87058975 373.16754342 185.28680581 373.15874958 190.70321846 C373.15797714 192.69263313 373.16234899 194.68205736 373.17220783 196.67144775 C373.18486722 199.38482663 373.17908332 202.09756014 373.16862583 204.81093407 C373.18071044 205.99518084 373.18071044 205.99518084 373.19303918 207.2033518 C373.15218514 211.72768557 372.6225943 214.66847547 369.80113316 218.25726891 C365.72341083 220.66429248 361.48242269 220.56388415 356.86753941 220.55805016 C355.73420422 220.56447784 355.73420422 220.56447784 354.57797337 220.57103539 C352.98529655 220.57675967 351.39259361 220.577293 349.79991245 220.57294273 C347.37473167 220.56978336 344.95077269 220.593262 342.52574253 220.61859703 C340.97300968 220.62087043 339.42027358 220.62157333 337.86753941 220.62055016 C336.78914547 220.63436478 336.78914547 220.63436478 335.6889658 220.64845848 C331.0017421 220.60578306 327.77590882 219.74667177 323.80113316 217.25726891 C322.23642083 214.12784425 322.10411358 210.64644667 322.80113316 207.25726891 C324.12113316 205.93726891 325.44113316 204.61726891 326.80113316 203.25726891 C336.37113316 203.25726891 345.94113316 203.25726891 355.80113316 203.25726891 C355.80113316 141.87726891 355.80113316 80.49726891 355.80113316 17.25726891 C240.30113316 17.25726891 124.80113316 17.25726891 5.80113316 17.25726891 C5.80113316 78.63726891 5.80113316 140.01726891 5.80113316 203.25726891 C19.99113316 203.25726891 34.18113316 203.25726891 48.80113316 203.25726891 C52.80113316 207.25726891 52.80113316 207.25726891 53.33238316 209.25726891 C53.27560879 212.89082845 53.21646044 214.69872531 50.98863316 217.69476891 C47.66405444 220.06946799 45.0134169 220.38469573 41.04185581 220.40253258 C40.07720402 220.40891243 39.11255222 220.41529228 38.11866856 220.42186546 C37.0780225 220.42297829 36.03737644 220.42409111 34.96519566 220.42523766 C33.89369267 220.42856606 32.82218967 220.43189445 31.7182169 220.43532372 C29.4502871 220.44038887 27.18234985 220.44273217 24.91441441 220.44257164 C21.44684127 220.44475586 17.97958739 220.46290991 14.51207066 220.48187828 C12.30894674 220.48481273 10.10582132 220.48679718 7.90269566 220.48773766 C6.34779926 220.49851593 6.34779926 220.49851593 4.76149082 220.50951195 C3.30505665 220.504897 3.30505665 220.504897 1.81919956 220.50018883 C0.9688715 220.50161385 0.11854343 220.50303886 -0.75755215 220.50450706 C-3.65347021 220.21123006 -5.63721895 219.65720633 -8.19886684 218.25726891 C-11.55588105 214.01388874 -11.62174742 210.02484452 -11.57308865 204.82439232 C-11.57706305 203.97764712 -11.58103746 203.13090192 -11.5851323 202.25849777 C-11.59475314 199.42254927 -11.58293849 196.58709987 -11.5711813 193.75116539 C-11.57360931 191.71753313 -11.57732872 189.68390205 -11.58224392 187.65027428 C-11.59165459 182.12768697 -11.58222623 176.60527683 -11.56891179 171.08270335 C-11.55760279 165.30699366 -11.56170434 159.53129276 -11.56365871 153.75557518 C-11.56454179 144.0569729 -11.5534578 134.35844051 -11.53504848 124.6598568 C-11.51387472 113.44049989 -11.51037218 102.22124532 -11.51661044 91.00187248 C-11.52230112 80.21582144 -11.51666232 69.42980651 -11.5054369 58.64376068 C-11.50078759 54.05013996 -11.49991849 49.45654129 -11.50202274 44.86291885 C-11.50390363 39.45634698 -11.49581706 34.04987958 -11.47996235 28.64333153 C-11.47571281 26.65672869 -11.47487343 24.67011527 -11.47765255 22.68350983 C-11.48086536 19.97661177 -11.47181529 17.27002762 -11.45956326 14.56316185 C-11.46334258 13.77279752 -11.4671219 12.98243318 -11.47101575 12.16811842 C-11.41581355 5.29700118 -11.41581355 5.29700118 -9.19886684 2.25726891 C-5.65892292 -0.10269371 -4.19538861 0.00521768 0 0 Z " fill="#000000" transform="translate(75.19886684417725,81.74273109436035)"/>
<path d="M0 0 C14.28279036 11.06651756 21.25989181 24.19991736 24 42 C25.5542143 55.07243258 20.97563707 69.3203277 12.97265625 79.60546875 C9.80068946 83.22635449 6.41023246 86.60492413 3 90 C3.71285156 90.43570313 4.42570312 90.87140625 5.16015625 91.3203125 C22.28173189 101.96656815 35.07210154 117.1276184 39.96557617 137.08642578 C41.3623962 144.14873441 41.45876464 151.32234672 41.5625 158.5 C41.58957031 159.70551514 41.61664063 160.91103027 41.64453125 162.15307617 C41.61696988 168.332422 41.21217634 173.06922047 37.85522461 178.33398438 C31.37973159 184.14906062 24.87519551 184.5820279 16.5703125 184.51757812 C15.45058044 184.5245874 14.33084839 184.53159668 13.17718506 184.53881836 C9.49286766 184.55635702 5.80932459 184.54478942 2.125 184.53125 C-0.44515123 184.53394608 -3.01530147 184.53782946 -5.58544922 184.54284668 C-10.96527794 184.54873618 -16.34481814 184.54058059 -21.72460938 184.52148438 C-27.92776328 184.4997186 -34.13039116 184.5067712 -40.33353233 184.52879 C-46.32222071 184.54918965 -52.31065355 184.54695372 -58.29937744 184.53526306 C-60.83823725 184.53259981 -63.37711053 184.53585135 -65.91595459 184.54518127 C-69.46776598 184.5553701 -73.01857548 184.53981122 -76.5703125 184.51757812 C-77.6136676 184.52567505 -78.65702271 184.53377197 -79.73199463 184.54211426 C-86.89757295 184.45925981 -92.370405 183.29811206 -97.85522461 178.31420898 C-101.76085922 172.13479898 -101.73049949 166.2244784 -101.5625 159.0625 C-101.54445312 157.86334961 -101.52640625 156.66419922 -101.5078125 155.42871094 C-100.95281828 134.81067552 -95.06788009 117.56894366 -80 103 C-79.15953125 102.1853125 -78.3190625 101.370625 -77.453125 100.53125 C-72.91144385 96.2923476 -68.56123985 92.78061992 -63 90 C-63.36351562 89.57589844 -63.72703125 89.15179688 -64.1015625 88.71484375 C-65.16728298 87.47150319 -66.22949997 86.22515496 -67.2890625 84.9765625 C-68.34130469 83.76095851 -69.41534407 82.56335623 -70.5234375 81.3984375 C-81.56491796 69.53906959 -83.60802128 55.64281008 -83.3125 40.15234375 C-82.72498709 26.63709875 -75.68368812 14.25930338 -66 5 C-47.59395658 -10.60936544 -20.47636714 -12.99523773 0 0 Z M-58.77734375 22.20703125 C-64.64228109 30.6244352 -68.20537166 39.55910462 -67 50 C-64.49429256 61.44034423 -59.79689574 70.31669258 -50 77 C-40.44300368 82.07006754 -30.56452114 83.809111 -19.84765625 81.24609375 C-9.8767555 77.75833011 -1.5922467 71.93746211 3.36328125 62.3671875 C7.83448001 51.47372143 8.0603139 42.34102551 4.31640625 31.1484375 C0.675092 22.43953754 -5.75966649 16.44544308 -14 12 C-29.6679777 5.71042609 -47.88157269 8.67711774 -58.77734375 22.20703125 Z M-70.19140625 116.77734375 C-83.19242728 132.75484044 -84 146.17702987 -84 167 C-48.36 167 -12.72 167 24 167 C24.71381662 150.31102531 24.71381662 150.31102531 21 135 C20.39671875 133.53046875 20.39671875 133.53046875 19.78125 132.03125 C12.99175306 117.09435673 1.67847442 107.92730775 -13.3359375 101.9453125 C-32.93945366 94.98922612 -56.23706947 101.72058535 -70.19140625 116.77734375 Z " fill="#000000" transform="translate(293,279)"/>
<path d="M0 0 C2.29934308 2.45622789 2.93724659 3.57865566 3.4375 6.9375 C2.87978797 10.84148421 1.93224851 12.36849493 -1 15 C-4.70919609 16.03033225 -7.0317544 16.33776009 -10.6875 15.0625 C-18.473987 12.56494756 -26.38562688 13.33893087 -33.75390625 16.7578125 C-41.75593545 21.18328256 -46.12358837 27.26912513 -49 36 C-50.38932451 45.7040605 -48.94777738 53.50131008 -43.25 61.4375 C-42.8375 61.953125 -42.425 62.46875 -42 63 C-42 63.66 -42 64.32 -42 65 C-41.42507812 65.2784375 -40.85015625 65.556875 -40.2578125 65.84375 C-38 67 -38 67 -36.0546875 68.21875 C-29.64080091 71.9889199 -23.61886503 72.81107554 -16.33349609 73.3671875 C-11.31917943 73.75732236 -6.97031008 74.09763164 -3.1875 77.75 C-1.58888788 80.77894929 -1.51628864 82.61402051 -2 86 C-3.37109375 88.65625 -3.37109375 88.65625 -6 91 C-9.49378784 91.68354187 -12.94997491 91.59616912 -16.5 91.5625 C-30.8022633 91.8390631 -41.36718129 94.88987149 -52 104.87890625 C-60.80585822 114.27308689 -64.10069758 125.39489602 -64.625 138 C-64.66367188 138.77472656 -64.70234375 139.54945313 -64.7421875 140.34765625 C-64.83521357 142.23143415 -64.91863175 144.11568256 -65 146 C-64.44733963 145.99111755 -63.89467926 145.98223511 -63.32527161 145.9730835 C-57.56648108 145.88450094 -51.80788449 145.82422079 -46.04858398 145.78027344 C-43.9000665 145.76017414 -41.7516036 145.73289007 -39.60327148 145.69824219 C-36.51272095 145.64965087 -33.42289445 145.62701421 -30.33203125 145.609375 C-29.37351761 145.58872986 -28.41500397 145.56808472 -27.42744446 145.54681396 C-23.12781604 145.5453715 -20.67239379 145.59855498 -16.91674805 147.84082031 C-14.44368703 150.62667582 -14 152.28640781 -14 156 C-15.60411848 159.52906067 -16.74159362 160.82772908 -20 163 C-22.17388916 163.26069641 -22.17388916 163.26069641 -24.72753906 163.2746582 C-25.68573547 163.28419022 -26.64393188 163.29372223 -27.63116455 163.30354309 C-29.18272247 163.30217598 -29.18272247 163.30217598 -30.765625 163.30078125 C-31.83238464 163.30506638 -32.89914429 163.3093515 -33.99822998 163.31376648 C-36.25776459 163.31951344 -38.51731771 163.32000736 -40.77685547 163.31567383 C-44.22265558 163.31252499 -47.66758802 163.3359305 -51.11328125 163.36132812 C-53.30989475 163.36360228 -55.50651056 163.36430407 -57.703125 163.36328125 C-58.72940002 163.372491 -59.75567505 163.38170074 -60.81304932 163.39118958 C-67.28211412 163.34968336 -72.64152067 162.89160552 -77.7421875 158.5 C-84.59731556 149.42286491 -83.01514835 135.52410652 -81.71582031 124.61376953 C-78.89130878 108.49587997 -69.82912512 94.36177404 -56.5625 84.9375 C-54.40341534 83.50148908 -52.31780385 82.15890193 -50 81 C-50.43570313 80.61070312 -50.87140625 80.22140625 -51.3203125 79.8203125 C-60.19232813 71.48599479 -66.6776873 60.32202843 -67.23828125 47.99609375 C-67.62227343 32.21955013 -64.19839538 20.38792142 -53.125 8.75 C-39.0296417 -4.62864517 -17.82445967 -8.64539661 0 0 Z " fill="#000000" transform="translate(192,299)"/>
<path d="M0 0 C9.14316055 6.73954618 16.91440623 16.92023833 19.05859375 28.33984375 C20.52934346 44.33090426 18.24368801 57.5536451 8.2734375 70.67578125 C6.36003162 72.83621327 4.4199425 74.73869137 2.2734375 76.67578125 C2.95148438 77.05347656 3.62953125 77.43117188 4.328125 77.8203125 C18.71196432 86.32709836 28.51031201 99.25290632 32.97265625 115.34375 C34.4827295 121.77957438 34.72021995 127.96274787 34.6484375 134.55078125 C34.66003906 135.63875 34.67164063 136.72671875 34.68359375 137.84765625 C34.65970251 144.36200123 34.35634668 149.29582093 29.7734375 154.3203125 C25.54284164 157.61444834 22.72174308 158.79257768 17.42236328 158.8527832 C16.43769073 158.86561844 15.45301819 158.87845367 14.43850708 158.89167786 C13.37598724 158.89906479 12.31346741 158.90645172 11.21875 158.9140625 C10.12505096 158.92213425 9.03135193 158.93020599 7.9045105 158.93852234 C5.58951399 158.95235673 3.27449714 158.96308177 0.95947266 158.97094727 C-2.58079561 158.98818016 -6.12013491 159.03207558 -9.66015625 159.07617188 C-11.9088473 159.08629714 -14.15754628 159.09481376 -16.40625 159.1015625 C-17.99395706 159.12782463 -17.99395706 159.12782463 -19.61373901 159.15461731 C-26.9599386 159.13292982 -26.9599386 159.13292982 -30.89257812 156.7878418 C-32.98162373 154.3820466 -33.40555857 153.32915199 -33.3515625 150.17578125 C-33.36445313 149.42296875 -33.37734375 148.67015625 -33.390625 147.89453125 C-32.35712384 144.44142149 -30.80047242 143.54309389 -27.7265625 141.67578125 C-24.27738222 141.12660257 -20.87950742 141.21009438 -17.39453125 141.28515625 C-16.40278397 141.29081604 -15.41103668 141.29647583 -14.38923645 141.30230713 C-11.23034836 141.32464781 -8.07260614 141.37484087 -4.9140625 141.42578125 C-2.76889662 141.44584919 -0.62371291 141.46409945 1.52148438 141.48046875 C6.77252453 141.5245048 12.02289914 141.59139375 17.2734375 141.67578125 C17.14835103 138.98642205 17.01421824 136.29800988 16.875 133.609375 C16.84092041 132.85668335 16.80684082 132.1039917 16.77172852 131.32849121 C16.05350875 117.91809483 11.28394512 107.09095507 1.4609375 97.86328125 C-9.22151242 89.08545419 -20.49054931 87.32915056 -33.89648438 87.37304688 C-41.11543525 87.22091399 -41.11543525 87.22091399 -44.3671875 84.3203125 C-46.05455824 81.03769758 -46.40904857 79.31570695 -45.7265625 75.67578125 C-43.17631885 72.57413356 -41.54957003 70.95011709 -37.7265625 69.67578125 C-35.67504173 69.48571085 -33.62319318 69.29826831 -31.56958008 69.13232422 C-21.31710424 68.25202436 -13.25308235 66.66910374 -5.8515625 58.98828125 C-0.23340692 51.88257621 1.99711919 44.67662113 1.66015625 35.63671875 C0.68287877 28.15412953 -2.35521803 21.92504971 -7.7265625 16.67578125 C-15.70673222 10.74435075 -22.84483957 8.96900901 -32.7265625 9.67578125 C-35.58508951 10.17780303 -38.39792506 10.75154354 -41.21875 11.43359375 C-44.28679027 11.72988424 -46.00783422 11.07505764 -48.7265625 9.67578125 C-51.09051108 6.52384981 -51.27543125 3.5178625 -50.7265625 -0.32421875 C-47.58330387 -4.82955612 -43.87671358 -6.48385651 -38.72265625 -7.81640625 C-24.8592375 -10.16613824 -11.787653 -7.68677049 0 0 Z " fill="#000000" transform="translate(381.7265625,303.32421875)"/>
<path d="M0 0 C1.85771254 3.29321769 2.375 5.64995284 2.375 9.4375 C1.1875 12.1875 1.1875 12.1875 -1.625 14.4375 C-4.62907005 15.35290332 -7.64364426 16.03145495 -10.7109375 16.703125 C-15.74208231 17.97102744 -18.60519638 20.25232281 -21.9375 24.125 C-24.4568608 29.07041194 -25.38082734 33.37938281 -24.03125 38.83984375 C-22.21013111 43.55748364 -19.94804682 46.89254811 -15.609375 49.5625 C-10.58322038 51.77875715 -5.68386221 52.03944266 -0.4375 50.4375 C3.93658344 48.54789595 6.78771488 45.37661922 9.375 41.4375 C10.86814867 36.95805398 10.28630217 32.56828373 10.1171875 27.8828125 C10.39573776 24.16036817 11.12960508 22.3771233 13.375 19.4375 C16.58237005 17.83381498 19.90544316 17.81229273 23.375 18.4375 C26.8539682 21.73805957 28.22927817 24.62194937 28.61328125 29.40625 C28.8198925 39.2365959 27.67513708 47.60294559 21.375 55.4375 C22.12523437 55.71722656 22.87546875 55.99695313 23.6484375 56.28515625 C36.0349307 61.13679275 47.90636279 68.1578539 53.6484375 80.640625 C55.66259743 85.62188074 55.96708297 90.1174604 55.375 95.4375 C53.9375 98.0625 53.9375 98.0625 51.375 99.4375 C48.24055934 100.02988053 45.50483105 100.07848016 42.375 99.4375 C38.86019759 96.662656 38.15637824 93.73894521 37.125 89.5625 C35.45175272 83.63568199 32.57845691 80.63460832 27.375 77.4375 C9.61861153 68.72157041 -12.74782306 67.61171911 -31.625 73.4375 C-38.49640421 76.00051805 -45.983916 78.94777576 -49.81640625 85.5390625 C-51.05141964 88.43865915 -52.03240371 91.37928519 -52.8515625 94.421875 C-53.7558938 96.77861719 -54.61515206 97.91474462 -56.625 99.4375 C-60.64528789 99.82038456 -63.34489249 99.96267231 -67.0625 98.4375 C-69.4971493 95.32114889 -69.77411308 92.26257478 -69.625 88.4375 C-68.02307546 77.94910986 -61.72389301 70.34159098 -53.37890625 64.14453125 C-47.75816242 60.66046734 -41.68256541 58.06324311 -35.625 55.4375 C-35.97433594 54.75042969 -36.32367188 54.06335938 -36.68359375 53.35546875 C-37.36615234 52.00388672 -37.36615234 52.00388672 -38.0625 50.625 C-38.51496094 49.73167969 -38.96742188 48.83835938 -39.43359375 47.91796875 C-43.12503116 40.23251709 -42.85319814 29.98183313 -40.6484375 21.82421875 C-36.50433418 11.61650413 -30.26463533 5.19145874 -20.359375 0.32421875 C-14.06059887 -2.06614413 -6.01103849 -3.5779991 0 0 Z " fill="#000000" transform="translate(170.625,142.5625)"/>
<path d="M0 0 C2.69395166 2.60969638 3.8800894 4.28129934 4.50120544 8.00404358 C4.50137161 9.11782883 4.50153778 10.23161407 4.50170898 11.37915039 C4.51108994 12.64719009 4.52047089 13.9152298 4.53013611 15.22169495 C4.51965856 16.59702228 4.50828965 17.97234308 4.49609375 19.34765625 C4.49624882 20.76582412 4.49773915 22.18399241 4.50050354 23.60215759 C4.50188553 26.56870344 4.48936247 29.53476462 4.46655273 32.5012207 C4.43814201 36.30000963 4.44091478 40.09799528 4.45364285 43.89684391 C4.46060312 46.82314393 4.45280734 49.74925883 4.44038582 52.6755352 C4.43587648 54.07613858 4.43553001 55.47676187 4.43945122 56.87736702 C4.44236715 58.83502612 4.42368299 60.7926813 4.40405273 62.75024414 C4.39864975 63.8632338 4.39324677 64.97622345 4.38768005 66.12294006 C3.95654129 69.32251673 3.21642038 70.69330518 1 73 C-1.64839143 74.06378903 -4.16390399 74.24878035 -7 74 C-9.85993478 72.23535939 -11.49782849 71.00434303 -13 68 C-13.08918777 66.61090696 -13.11759541 65.21763093 -13.11352539 63.82568359 C-13.11344986 62.96494232 -13.11337433 62.10420105 -13.11329651 61.21737671 C-13.10813522 60.28712677 -13.10297394 59.35687683 -13.09765625 58.3984375 C-13.0962413 57.44683746 -13.09482635 56.49523743 -13.09336853 55.51480103 C-13.08776012 52.46816903 -13.07520619 49.42160987 -13.0625 46.375 C-13.05748608 44.31250106 -13.05292299 42.25000097 -13.04882812 40.1875 C-13.03778796 35.12497183 -13.02051767 30.06249827 -13 25 C-13.66 25.33 -14.32 25.66 -15 26 C-19.33327174 26.49055907 -21.32000344 26.47744439 -24.9375 23.9375 C-27 21 -27 21 -27.625 17.5 C-26.66872293 12.14484843 -22.9800386 9.62242102 -18.73046875 6.54296875 C-17.55391383 5.75118263 -16.37284246 4.9660692 -15.1875 4.1875 C-14.60935547 3.78080078 -14.03121094 3.37410156 -13.43554688 2.95507812 C-8.80841587 -0.08706878 -5.52546968 -0.83478319 0 0 Z " fill="#000000" transform="translate(377,155)"/>
<path d="M0 0 C2.69395166 2.60969638 3.8800894 4.28129934 4.50120544 8.00404358 C4.50137161 9.11782883 4.50153778 10.23161407 4.50170898 11.37915039 C4.51108994 12.64719009 4.52047089 13.9152298 4.53013611 15.22169495 C4.51965856 16.59702228 4.50828965 17.97234308 4.49609375 19.34765625 C4.49624882 20.76582412 4.49773915 22.18399241 4.50050354 23.60215759 C4.50188553 26.56870344 4.48936247 29.53476462 4.46655273 32.5012207 C4.43814201 36.30000963 4.44091478 40.09799528 4.45364285 43.89684391 C4.46060312 46.82314393 4.45280734 49.74925883 4.44038582 52.6755352 C4.43587648 54.07613858 4.43553001 55.47676187 4.43945122 56.87736702 C4.44236715 58.83502612 4.42368299 60.7926813 4.40405273 62.75024414 C4.39864975 63.8632338 4.39324677 64.97622345 4.38768005 66.12294006 C3.95654129 69.32251673 3.21642038 70.69330518 1 73 C-1.64839143 74.06378903 -4.16390399 74.24878035 -7 74 C-9.85993478 72.23535939 -11.49782849 71.00434303 -13 68 C-13.08918777 66.61090696 -13.11759541 65.21763093 -13.11352539 63.82568359 C-13.11344986 62.96494232 -13.11337433 62.10420105 -13.11329651 61.21737671 C-13.10813522 60.28712677 -13.10297394 59.35687683 -13.09765625 58.3984375 C-13.0962413 57.44683746 -13.09482635 56.49523743 -13.09336853 55.51480103 C-13.08776012 52.46816903 -13.07520619 49.42160987 -13.0625 46.375 C-13.05748608 44.31250106 -13.05292299 42.25000097 -13.04882812 40.1875 C-13.03778796 35.12497183 -13.02051767 30.06249827 -13 25 C-13.66 25.33 -14.32 25.66 -15 26 C-19.33327174 26.49055907 -21.32000344 26.47744439 -24.9375 23.9375 C-27 21 -27 21 -27.625 17.5 C-26.66872293 12.14484843 -22.9800386 9.62242102 -18.73046875 6.54296875 C-17.55391383 5.75118263 -16.37284246 4.9660692 -15.1875 4.1875 C-14.60935547 3.78080078 -14.03121094 3.37410156 -13.43554688 2.95507812 C-8.80841587 -0.08706878 -5.52546968 -0.83478319 0 0 Z " fill="#000000" transform="translate(277,155)"/>
<path d="M0 0 C2.73772193 3.00266276 3.15966123 5.38027394 3.1875 9.3125 C3.0946875 11.1378125 3.0946875 11.1378125 3 13 C4.8253125 12.9071875 4.8253125 12.9071875 6.6875 12.8125 C10.60970692 12.83332588 12.96907723 13.32565638 16 16 C17.65816798 19.31633595 18.23761219 21.07115235 17.3125 24.6875 C16.00617306 26.98912366 15.07296766 28.37323166 13 30 C10.51953125 30.29296875 10.51953125 30.29296875 7.8125 30.1875 C6.91144531 30.16042969 6.01039063 30.13335937 5.08203125 30.10546875 C4.39496094 30.07066406 3.70789063 30.03585938 3 30 C3.04640625 30.59167969 3.0928125 31.18335938 3.140625 31.79296875 C3.33369653 36.01985618 3.4219755 38.3248392 1.125 42 C-1.38258784 44.36008267 -2.40196644 44.92026219 -5.8125 45.375 C-9 45 -9 45 -11.875 43.125 C-14.84400951 38.75880954 -14.44797592 35.12683554 -14 30 C-14.66386719 30.05800781 -15.32773437 30.11601562 -16.01171875 30.17578125 C-20.61455199 30.41096251 -23.19100229 30.53393849 -27.125 27.9375 C-29.4780487 24.25105703 -29.70341469 22.29864534 -29 18 C-27.13291495 15.63502561 -25.67938569 14.33969285 -23 13 C-21.45976004 12.93049459 -19.91665012 12.91547643 -18.375 12.9375 C-17.14910156 12.95103516 -17.14910156 12.95103516 -15.8984375 12.96484375 C-14.95871094 12.98224609 -14.95871094 12.98224609 -14 13 C-14.04640625 12.32453125 -14.0928125 11.6490625 -14.140625 10.953125 C-14.43740573 3.61840121 -14.43740573 3.61840121 -12.1875 0.4375 C-7.62264739 -2.56226029 -4.96127076 -1.94907066 0 0 Z " fill="#000000" transform="translate(325,170)"/>
</svg>
